<svg width="19" height="21" viewBox="0 0 19 21" fill="none" xmlns="http://www.w3.org/2000/svg">
<path d="M9.49121 20.7334C10.7334 20.7334 11.9023 20.4961 12.998 20.0215C14.0938 19.5527 15.0605 18.8994 15.8984 18.0615C16.7363 17.2236 17.3926 16.2568 17.8672 15.1611C18.3418 14.0654 18.5791 12.8965 18.5791 11.6543C18.5791 10.4121 18.3418 9.24316 17.8672 8.14746C17.3926 7.05176 16.7363 6.08789 15.8984 5.25586C15.0605 4.41797 14.0938 3.76172 12.998 3.28711C11.9023 2.8125 10.7305 2.5752 9.48242 2.5752C8.24023 2.5752 7.07129 2.8125 5.97559 3.28711C4.88574 3.76172 3.92188 4.41797 3.08398 5.25586C2.25195 6.08789 1.59863 7.05176 1.12402 8.14746C0.649414 9.24316 0.412109 10.4121 0.412109 11.6543C0.412109 12.8965 0.649414 14.0654 1.12402 15.1611C1.59863 16.2568 2.25195 17.2236 3.08398 18.0615C3.92188 18.8994 4.88867 19.5527 5.98438 20.0215C7.08008 20.4961 8.24902 20.7334 9.49121 20.7334ZM9.49121 13.1748C9.06934 13.1748 8.71191 13.0283 8.41895 12.7354C8.13184 12.4365 7.98828 12.0791 7.98828 11.6631C7.98828 11.3818 8.06152 11.127 8.20801 10.8984C8.35449 10.6641 8.55078 10.4736 8.79688 10.3271V6.09082C8.79688 5.90332 8.86426 5.74512 8.99902 5.61621C9.13379 5.48145 9.29492 5.41406 9.48242 5.41406C9.68164 5.41406 9.8457 5.48145 9.97461 5.61621C10.1094 5.74512 10.1768 5.90332 10.1768 6.09082V10.3359C10.4346 10.4707 10.6367 10.6553 10.7832 10.8896C10.9297 11.1182 11.0029 11.376 11.0029 11.6631C11.0029 12.085 10.8564 12.4424 10.5635 12.7354C10.2705 13.0283 9.91309 13.1748 9.49121 13.1748ZM8.47168 3.01465H10.502V1.74023C10.502 1.45898 10.4023 1.21875 10.2031 1.01953C10.0098 0.814453 9.77246 0.711914 9.49121 0.711914C9.20996 0.711914 8.96973 0.814453 8.77051 1.01953C8.57129 1.21875 8.47168 1.45898 8.47168 1.74023V3.01465ZM15.1162 5.04492L16.4873 6.53027L17.4629 5.55469C17.6914 5.32617 17.8057 5.07129 17.8057 4.79004C17.8057 4.52051 17.7119 4.29199 17.5244 4.10449C17.3369 3.91699 17.1055 3.82324 16.8301 3.82324C16.5254 3.82324 16.2646 3.92871 16.0479 4.13965L15.1162 5.04492Z" fill="white" fill-opacity="0.4"/>
</svg>
