<svg width="31" height="31" viewBox="0 0 31 31" fill="none" xmlns="http://www.w3.org/2000/svg">
<g filter="url(#filter0_d_3101_29855)">
<path d="M15.5 28.9287C22.8564 28.9287 28.9473 22.8379 28.9473 15.4814C28.9473 8.13818 22.8433 2.03418 15.4868 2.03418C8.14355 2.03418 2.05273 8.13818 2.05273 15.4814C2.05273 22.8379 8.15674 28.9287 15.5 28.9287ZM15.5396 7.83496C19.4155 7.83496 22.4741 10.4321 23.1465 14.2158H24.5044C25.1504 14.2158 25.269 14.8223 24.9263 15.3101L22.751 18.3687C22.3555 18.9092 21.7227 18.8696 21.3535 18.3687L19.1519 15.3101C18.8091 14.8223 18.9409 14.2158 19.5737 14.2158H21.0898C20.4834 11.8032 18.2422 9.98389 15.5396 9.98389C14.2212 9.98389 13.2456 10.4058 12.27 11.1572C11.7295 11.5527 11.0967 11.645 10.6353 11.1309C10.1606 10.6299 10.3057 9.91797 10.9648 9.39062C12.1382 8.42822 13.8389 7.83496 15.5396 7.83496ZM15.5659 23.0752C11.6899 23.0752 8.61816 20.478 7.95898 16.6943H6.52197C5.87598 16.6943 5.75732 16.0879 6.1001 15.6001L8.27539 12.5283C8.6709 12.001 9.30371 12.0273 9.65967 12.5283L11.8745 15.6001C12.2173 16.0879 12.0854 16.6943 11.4395 16.6943H10.0156C10.6221 19.0938 12.8633 20.9131 15.5659 20.9131C16.8843 20.9131 17.8599 20.5044 18.8354 19.7529C19.376 19.3442 19.9956 19.2651 20.4702 19.7793C20.958 20.2803 20.7998 20.9922 20.1406 21.5063C18.9673 22.4819 17.2666 23.0752 15.5659 23.0752Z" fill="white"/>
</g>
<defs>
<filter id="filter0_d_3101_29855" x="2.05273" y="2.03418" width="28.8945" height="28.8945" filterUnits="userSpaceOnUse" color-interpolation-filters="sRGB">
<feFlood flood-opacity="0" result="BackgroundImageFix"/>
<feColorMatrix in="SourceAlpha" type="matrix" values="0 0 0 0 0 0 0 0 0 0 0 0 0 0 0 0 0 0 127 0" result="hardAlpha"/>
<feOffset dx="1" dy="1"/>
<feGaussianBlur stdDeviation="0.5"/>
<feComposite in2="hardAlpha" operator="out"/>
<feColorMatrix type="matrix" values="0 0 0 0 0 0 0 0 0 0 0 0 0 0 0 0 0 0 0.25 0"/>
<feBlend mode="normal" in2="BackgroundImageFix" result="effect1_dropShadow_3101_29855"/>
<feBlend mode="normal" in="SourceGraphic" in2="effect1_dropShadow_3101_29855" result="shape"/>
</filter>
</defs>
</svg>
