<svg width="20" height="19" viewBox="0 0 20 19" fill="none" xmlns="http://www.w3.org/2000/svg">
<path d="M9.99121 18.7334C11.2334 18.7334 12.4023 18.4961 13.498 18.0215C14.5938 17.5527 15.5605 16.8994 16.3984 16.0615C17.2363 15.2236 17.8926 14.2568 18.3672 13.1611C18.8418 12.0654 19.0791 10.8965 19.0791 9.6543C19.0791 8.41211 18.8418 7.24316 18.3672 6.14746C17.8926 5.05176 17.2363 4.08789 16.3984 3.25586C15.5605 2.41797 14.5938 1.76172 13.498 1.28711C12.4023 0.8125 11.2305 0.575195 9.98242 0.575195C8.74023 0.575195 7.57129 0.8125 6.47559 1.28711C5.38574 1.76172 4.42188 2.41797 3.58398 3.25586C2.75195 4.08789 2.09863 5.05176 1.62402 6.14746C1.14941 7.24316 0.912109 8.41211 0.912109 9.6543C0.912109 10.8965 1.14941 12.0654 1.62402 13.1611C2.09863 14.2568 2.75195 15.2236 3.58398 16.0615C4.42188 16.8994 5.38867 17.5527 6.48438 18.0215C7.58008 18.4961 8.74902 18.7334 9.99121 18.7334ZM10 17.2393C9.33789 17.2393 8.67871 17.1514 8.02246 16.9756C7.36621 16.7998 6.74219 16.5449 6.15039 16.2109C5.56445 15.877 5.05176 15.4727 4.6123 14.998C4.94629 14.4941 5.38281 14.0664 5.92188 13.7148C6.46094 13.3574 7.07617 13.085 7.76758 12.8975C8.45898 12.71 9.20312 12.6162 10 12.6162C10.7793 12.6162 11.5117 12.71 12.1973 12.8975C12.8887 13.0791 13.5068 13.3486 14.0518 13.7061C14.6025 14.0576 15.0449 14.4883 15.3789 14.998C14.9336 15.4727 14.418 15.877 13.832 16.2109C13.2461 16.5449 12.6221 16.7998 11.96 16.9756C11.3037 17.1514 10.6504 17.2393 10 17.2393ZM10 11.0957C9.41992 11.0898 8.89844 10.9404 8.43555 10.6475C7.97852 10.3545 7.61523 9.95605 7.3457 9.45215C7.07617 8.94824 6.94141 8.37988 6.94141 7.74707C6.93555 7.14941 7.06738 6.60156 7.33691 6.10352C7.6123 5.60547 7.98145 5.20703 8.44434 4.9082C8.90723 4.60352 9.42578 4.45117 10 4.45117C10.5625 4.45117 11.0752 4.60352 11.5381 4.9082C12.001 5.20703 12.3672 5.60547 12.6367 6.10352C12.9121 6.60156 13.0498 7.14941 13.0498 7.74707C13.0498 8.37988 12.915 8.95117 12.6455 9.46094C12.376 9.96484 12.0098 10.3662 11.5469 10.665C11.084 10.958 10.5684 11.1016 10 11.0957Z" fill="white" fill-opacity="0.4"/>
</svg>
